<svg width="32" height="34" viewBox="0 0 32 34" fill="none" xmlns="http://www.w3.org/2000/svg">
<g id="Icons / pointinghand">
<g id="Group">
<path id="Vector" d="M6.94307 25.8949C6.32091 25.0653 5.69875 23.6136 4.45442 21.7471C3.83226 20.7102 1.96577 18.6363 1.34361 17.8068C0.928837 16.9772 0.928836 16.5625 1.13622 15.7329C1.34361 14.4886 2.58793 13.4516 4.03964 13.4516C5.07658 13.4516 6.11352 14.2812 6.94307 14.9034C7.35784 15.3181 7.98001 16.1477 8.39478 16.5625C8.80955 16.9772 8.80955 17.1846 9.22433 17.5994C9.6391 18.2216 9.84649 18.6363 9.6391 17.8068C9.43172 16.7698 9.22433 15.1107 8.80955 13.4516C8.60217 12.2073 8.39478 11.9999 8.18739 11.1704C7.98 10.1334 7.77262 9.51128 7.56523 8.47435C7.35784 7.85219 7.15046 6.19309 6.94307 5.36354C6.73568 4.3266 6.73568 2.46011 7.56523 1.63056C8.18739 1.0084 9.43172 0.801016 10.2613 1.21579C11.2982 1.83795 11.9204 3.28966 12.1278 3.91183C12.5425 4.94876 12.9573 6.40047 13.1647 8.05957C13.5795 10.1334 14.2016 13.2443 14.2016 13.8664C14.2016 13.0369 13.9942 11.5852 14.2016 10.7556C14.409 10.1334 14.8238 9.3039 15.6533 9.09651C16.2755 8.88912 16.8977 8.88912 17.5198 8.88912C18.142 9.09651 18.7641 9.51128 19.1789 9.92606C20.0085 11.1704 20.0085 13.8664 20.0085 13.659C20.2159 12.8295 20.2159 11.1704 20.6306 10.3408C20.838 9.92606 21.6676 9.51128 22.0823 9.3039C22.7045 9.09651 23.5341 9.09651 24.1562 9.3039C24.571 9.3039 25.4005 9.92606 25.6079 10.3408C26.0227 10.963 26.2301 13.0369 26.4375 13.8664C26.4375 14.0738 26.6449 13.0369 27.0596 12.4147C27.8892 11.1704 30.7926 10.7556 31 13.659C31 15.1107 31 14.9034 31 15.9403C31 16.9772 31 17.5994 31 18.4289C31 19.2585 30.7926 21.125 30.5852 21.9545C30.3778 22.5767 29.7557 24.0284 29.1335 24.8579C29.1335 24.8579 26.8522 27.3466 26.6449 28.5909C26.4375 29.8352 26.4375 29.8352 26.4375 30.6648C26.4375 31.4943 26.6449 32.5313 26.6449 32.5313C26.6449 32.5313 24.9858 32.7387 24.1562 32.5313C23.3267 32.3239 22.2897 30.8722 22.0823 30.25C21.6676 29.6279 21.0454 29.6279 20.6306 30.25C20.2159 31.0796 19.1789 32.5313 18.3494 32.5313C16.8977 32.7387 13.9942 32.5313 11.9204 32.5313C11.9204 32.5313 12.3351 30.4574 11.5056 29.6279C10.8834 29.0057 9.84649 27.9688 9.22433 27.3466L6.94307 25.8949Z" fill="white"/>
<path id="Vector_2" d="M6.94307 25.8949C6.32091 25.0653 5.69875 23.6136 4.45442 21.7471C3.83226 20.7102 1.96577 18.6363 1.34361 17.8068C0.928837 16.9772 0.928836 16.5625 1.13622 15.7329C1.34361 14.4886 2.58793 13.4516 4.03964 13.4516C5.07658 13.4516 6.11352 14.2812 6.94307 14.9034C7.35784 15.3181 7.98001 16.1477 8.39478 16.5625C8.80955 16.9772 8.80955 17.1846 9.22433 17.5994C9.6391 18.2216 9.84649 18.6363 9.6391 17.8068C9.43172 16.7698 9.22433 15.1107 8.80955 13.4516C8.60217 12.2073 8.39478 11.9999 8.18739 11.1704C7.98 10.1334 7.77262 9.51128 7.56523 8.47435C7.35784 7.85219 7.15046 6.19309 6.94307 5.36354C6.73568 4.3266 6.73568 2.46011 7.56523 1.63056C8.18739 1.0084 9.43172 0.801016 10.2613 1.21579C11.2982 1.83795 11.9204 3.28966 12.1278 3.91183C12.5425 4.94876 12.9573 6.40047 13.1647 8.05957C13.5795 10.1334 14.2016 13.2443 14.2016 13.8664C14.2016 13.0369 13.9942 11.5852 14.2016 10.7556C14.409 10.1334 14.8238 9.3039 15.6533 9.09651C16.2755 8.88912 16.8977 8.88912 17.5198 8.88912C18.142 9.09651 18.7641 9.51128 19.1789 9.92606C20.0085 11.1704 20.0085 13.8664 20.0085 13.659C20.2159 12.8295 20.2159 11.1704 20.6306 10.3408C20.838 9.92606 21.6676 9.51128 22.0823 9.3039C22.7045 9.09651 23.5341 9.09651 24.1562 9.3039C24.571 9.3039 25.4005 9.92606 25.6079 10.3408C26.0227 10.963 26.2301 13.0369 26.4375 13.8664C26.4375 14.0738 26.6449 13.0369 27.0596 12.4147C27.8892 11.1704 30.7926 10.7556 31 13.659C31 15.1107 31 14.9034 31 15.9403C31 16.9772 31 17.5994 31 18.4289C31 19.2585 30.7926 21.125 30.5852 21.9545C30.3778 22.5767 29.7557 24.0284 29.1335 24.8579C29.1335 24.8579 26.8523 27.3466 26.6449 28.5909C26.4375 29.8352 26.4375 29.8352 26.4375 30.6648C26.4375 31.4943 26.6449 32.5313 26.6449 32.5313C26.6449 32.5313 24.9858 32.7387 24.1562 32.5313C23.3267 32.3239 22.2897 30.8722 22.0823 30.25C21.6676 29.6279 21.0454 29.6279 20.6306 30.25C20.2159 31.0796 19.1789 32.5313 18.3494 32.5313C16.8977 32.7387 13.9942 32.5313 11.9204 32.5313C11.9204 32.5313 12.3351 30.4574 11.5056 29.6279C10.8834 29.0057 9.84649 27.9688 9.22433 27.3466L6.94307 25.8949Z" stroke="#23242A" stroke-width="2" stroke-linecap="round" stroke-linejoin="round"/>
<path id="Vector_3" d="M23.8126 26.7152V19.6641" stroke="#23242A" stroke-width="2" stroke-linecap="round"/>
<path id="Vector_4" d="M19.8722 26.7152L19.6649 19.6641" stroke="white" stroke-width="2" stroke-linecap="round"/>
<path id="Vector_5" d="M15.5171 19.6641V26.7152" stroke="#23242A" stroke-width="2" stroke-linecap="round"/>
</g>
</g>
</svg>
